<svg viewBox="0 0 96 96" fill="none" xmlns="http://www.w3.org/2000/svg">
<g clip-path="url(#clip0_1_24647)">
<path d="M45.6727 48L47.4182 94.4C47.4182 94.4 47.4182 95.2727 48 95.2727C48.5818 95.2727 48.5818 94.4 48.5818 94.4L50.3273 48" fill="#FCBF49"/>
<path d="M45.6727 48L47.4182 94.4C47.4182 94.4 47.4182 95.2727 48 95.2727C48.5818 95.2727 48.5818 94.4 48.5818 94.4L50.3273 48" stroke="#843511"/>
<path d="M46.8364 48L48.0001 79.8545L49.1637 48" fill="#843511"/>
<path d="M43.6144 62.9902C40.9421 68.8292 43.2369 73.6007 40.567 78.698C37.8972 83.7953 39.5663 87.9942 39.3874 90.3327C39.2085 92.6713 37.2951 93.321 37.7782 93.8646C38.2614 94.4082 40.2618 93.3309 41.0423 90.2241C41.8228 87.1174 39.9603 85.3283 43.1617 79.0774C46.3631 72.8266 43.8193 70.0083 47.0328 64.4278" fill="#FCBF49"/>
<path d="M43.6144 62.9902C40.9421 68.8292 43.2369 73.6007 40.567 78.698C37.8972 83.7953 39.5663 87.9942 39.3874 90.3327C39.2085 92.6713 37.2951 93.321 37.7782 93.8646C38.2614 94.4082 40.2618 93.3309 41.0423 90.2241C41.8228 87.1174 39.9603 85.3283 43.1617 79.0774C46.3631 72.8266 43.8193 70.0083 47.0328 64.4278" stroke="#843511"/>
<path d="M44.3511 64.476C42.2779 70.2885 44.4616 74.1467 41.6783 79.0725C44.7708 75.5455 42.7321 70.9746 45.4334 64.9931" fill="#843511"/>
<path d="M50.3274 48L48.5819 1.6C48.5819 1.6 48.5819 0.727276 48.0001 0.727276C47.4183 0.727276 47.4183 1.6 47.4183 1.6L45.6728 48" fill="#FCBF49"/>
<path d="M50.3274 48L48.5819 1.6C48.5819 1.6 48.5819 0.727274 48.0001 0.727274C47.4183 0.727274 47.4183 1.6 47.4183 1.6L45.6728 48" stroke="#843511"/>
<path d="M49.1637 48L48.0001 16.1455L46.8364 48" fill="#843511"/>
<path d="M52.3857 33.0098C55.058 27.1708 52.7632 22.3993 55.4331 17.302C58.1029 12.2047 56.4338 8.00581 56.6127 5.66726C56.7916 3.32871 58.705 2.67895 58.2219 2.13535C57.7388 1.59175 55.7384 2.66911 54.9578 5.77587C54.1773 8.88263 56.0399 10.6717 52.8385 16.9226C49.6371 23.1734 52.1808 25.9917 48.9674 31.5722" fill="#FCBF49"/>
<path d="M52.3857 33.0098C55.058 27.1708 52.7632 22.3993 55.4331 17.302C58.1029 12.2047 56.4338 8.0058 56.6127 5.66726C56.7916 3.32871 58.705 2.67895 58.2219 2.13535C57.7388 1.59175 55.7384 2.66911 54.9578 5.77587C54.1773 8.88263 56.0399 10.6717 52.8385 16.9226C49.6371 23.1734 52.1808 25.9917 48.9674 31.5722" stroke="#843511"/>
<path d="M51.649 31.524C53.7222 25.7115 51.5385 21.8533 54.3218 16.9275C51.2293 20.4545 53.268 25.0254 50.5667 31.0069" fill="#843511"/>
<path d="M48 45.6727L1.6 47.4182C1.6 47.4182 0.727276 47.4182 0.727276 48C0.727276 48.5818 1.6 48.5818 1.6 48.5818L48 50.3273" fill="#FCBF49"/>
<path d="M48 45.6727L1.6 47.4182C1.6 47.4182 0.727274 47.4182 0.727274 48C0.727274 48.5818 1.6 48.5818 1.6 48.5818L48 50.3273" stroke="#843511"/>
<path d="M48 46.8364L16.1455 48L48 49.1636" fill="#843511"/>
<path d="M33.0098 43.6143C27.1708 40.942 22.3993 43.2368 17.302 40.5669C12.2046 37.8971 8.00577 39.5662 5.66722 39.3873C3.32867 39.2084 2.67891 37.295 2.13531 37.7781C1.59172 38.2613 2.66907 40.2617 5.77583 41.0422C8.88259 41.8227 10.6717 39.9602 16.9225 43.1616C23.1734 46.363 25.9917 43.8192 31.5721 47.0327" fill="#FCBF49"/>
<path d="M33.0098 43.6143C27.1708 40.942 22.3993 43.2368 17.302 40.5669C12.2046 37.8971 8.00577 39.5662 5.66722 39.3873C3.32867 39.2084 2.67891 37.295 2.13531 37.7781C1.59171 38.2613 2.66907 40.2617 5.77583 41.0422C8.88259 41.8227 10.6717 39.9602 16.9225 43.1616C23.1734 46.363 25.9917 43.8192 31.5721 47.0327" stroke="#843511"/>
<path d="M31.524 44.351C25.7115 42.2779 21.8533 44.4616 16.9275 41.6782C20.4545 44.7707 25.0254 42.732 31.0069 45.4333" fill="#843511"/>
<path d="M48 50.3273L94.4 48.5818C94.4 48.5818 95.2727 48.5818 95.2727 48C95.2727 47.4182 94.4 47.4182 94.4 47.4182L48 45.6727" fill="#FCBF49"/>
<path d="M48 50.3273L94.4 48.5818C94.4 48.5818 95.2727 48.5818 95.2727 48C95.2727 47.4182 94.4 47.4182 94.4 47.4182L48 45.6727" stroke="#843511"/>
<path d="M48 49.1636L79.8545 48L48 46.8364" fill="#843511"/>
<path d="M62.9902 52.3857C68.8292 55.058 73.6007 52.7632 78.698 55.4331C83.7954 58.1029 87.9942 56.4338 90.3328 56.6127C92.6713 56.7916 93.3211 58.705 93.8647 58.2219C94.4083 57.7387 93.3309 55.7383 90.2242 54.9578C87.1174 54.1773 85.3283 56.0398 79.0775 52.8384C72.8266 49.637 70.0083 52.1808 64.4279 48.9673" fill="#FCBF49"/>
<path d="M62.9902 52.3857C68.8292 55.058 73.6007 52.7632 78.698 55.4331C83.7954 58.1029 87.9942 56.4338 90.3328 56.6127C92.6713 56.7916 93.3211 58.705 93.8647 58.2219C94.4083 57.7387 93.3309 55.7383 90.2242 54.9578C87.1174 54.1773 85.3283 56.0398 79.0775 52.8384C72.8266 49.637 70.0083 52.1808 64.4279 48.9673" stroke="#843511"/>
<path d="M64.476 51.649C70.2885 53.7221 74.1467 51.5384 79.0725 54.3218C75.5455 51.2293 70.9746 53.268 64.9931 50.5667" fill="#843511"/>
<path d="M46.3544 46.3544L14.7788 80.3983C14.7788 80.3983 14.1617 81.0154 14.5731 81.4269C14.9845 81.8383 15.6017 81.2212 15.6017 81.2212L49.6456 49.6456" fill="#FCBF49"/>
<path d="M46.3544 46.3544L14.7788 80.3983C14.7788 80.3983 14.1617 81.0154 14.5731 81.4269C14.9845 81.8383 15.6017 81.2212 15.6017 81.2212L49.6456 49.6456" stroke="#843511"/>
<path d="M47.1771 47.1772L25.4754 70.5246L48.8228 48.8228" fill="#843511"/>
<path d="M34.2991 55.4985C28.2807 57.7377 26.5295 62.7343 21.0373 64.4508C15.545 66.1673 13.7562 70.3166 11.9761 71.8437C10.196 73.3708 8.38356 72.4772 8.34081 73.2032C8.29806 73.9293 10.4744 74.582 13.2231 72.937C15.9718 71.2921 15.9199 68.7101 22.6036 66.5538C29.2874 64.3975 29.4815 60.606 35.6997 58.9322" fill="#FCBF49"/>
<path d="M34.2991 55.4985C28.2807 57.7377 26.5295 62.7343 21.0373 64.4508C15.545 66.1673 13.7562 70.3166 11.9761 71.8437C10.196 73.3708 8.38356 72.4772 8.34081 73.2032C8.29806 73.9293 10.4744 74.582 13.2231 72.937C15.9718 71.2921 15.9199 68.7101 22.6036 66.5538C29.2874 64.3975 29.4815 60.606 35.6997 58.9322" stroke="#843511"/>
<path d="M33.7695 57.0701C28.1936 59.7142 27.0095 63.9865 21.5583 65.5014C26.239 65.1942 28.0295 60.5205 34.1692 58.201" fill="#843511"/>
<path d="M49.6456 49.6456L81.2212 15.6017C81.2212 15.6017 81.8383 14.9845 81.4269 14.5731C81.0155 14.1617 80.3983 14.7788 80.3983 14.7788L46.3544 46.3544" fill="#FCBF49"/>
<path d="M49.6456 49.6456L81.2212 15.6017C81.2212 15.6017 81.8383 14.9845 81.4269 14.5731C81.0155 14.1617 80.3983 14.7788 80.3983 14.7788L46.3544 46.3544" stroke="#843511"/>
<path d="M48.8229 48.8228L70.5246 25.4754L47.1772 47.1772" fill="#843511"/>
<path d="M61.7009 40.5015C67.7193 38.2623 69.4705 33.2657 74.9627 31.5492C80.455 29.8327 82.2438 25.6834 84.0239 24.1563C85.804 22.6292 87.6164 23.5228 87.6592 22.7968C87.7019 22.0707 85.5256 21.418 82.7769 23.063C80.0282 24.7079 80.0801 27.2899 73.3964 29.4462C66.7126 31.6025 66.5185 35.394 60.3003 37.0678" fill="#FCBF49"/>
<path d="M61.7009 40.5015C67.7193 38.2623 69.4705 33.2657 74.9627 31.5492C80.455 29.8327 82.2438 25.6834 84.0239 24.1563C85.804 22.6292 87.6164 23.5228 87.6592 22.7968C87.7019 22.0707 85.5256 21.418 82.7769 23.063C80.0282 24.7079 80.0801 27.2899 73.3964 29.4462C66.7126 31.6025 66.5185 35.394 60.3003 37.0678" stroke="#843511"/>
<path d="M62.2306 38.9299C67.8066 36.2858 68.9906 32.0135 74.4418 30.4986C69.7611 30.8058 67.9706 35.4795 61.8309 37.799" fill="#843511"/>
<path d="M49.6456 46.3544L15.6017 14.7788C15.6017 14.7788 14.9845 14.1617 14.5731 14.5731C14.1617 14.9845 14.7788 15.6016 14.7788 15.6016L46.3544 49.6456" fill="#FCBF49"/>
<path d="M49.6456 46.3544L15.6017 14.7788C15.6017 14.7788 14.9845 14.1617 14.5731 14.5731C14.1617 14.9845 14.7788 15.6016 14.7788 15.6016L46.3544 49.6456" stroke="#843511"/>
<path d="M48.8229 47.1772L25.4755 25.4754L47.1772 48.8228" fill="#843511"/>
<path d="M40.5015 34.2992C38.2623 28.2808 33.2657 26.5295 31.5492 21.0373C29.8328 15.5451 25.6835 13.7562 24.1564 11.9761C22.6293 10.196 23.5228 8.38359 22.7968 8.34084C22.0708 8.29809 21.4181 10.4744 23.063 13.2231C24.7079 15.9718 27.29 15.9199 29.4463 22.6036C31.6026 29.2874 35.3941 29.4815 37.0678 35.6997" fill="#FCBF49"/>
<path d="M40.5015 34.2992C38.2623 28.2808 33.2657 26.5295 31.5492 21.0373C29.8328 15.5451 25.6835 13.7562 24.1564 11.9761C22.6293 10.196 23.5228 8.38359 22.7968 8.34084C22.0708 8.29809 21.4181 10.4744 23.063 13.2231C24.7079 15.9718 27.29 15.9199 29.4463 22.6036C31.6026 29.2874 35.3941 29.4815 37.0678 35.6997" stroke="#843511"/>
<path d="M38.9299 33.7695C36.2859 28.1935 32.0135 27.0094 30.4986 21.5582C30.8058 26.2389 35.4796 28.0295 37.799 34.1692" fill="#843511"/>
<path d="M46.3544 49.6456L80.3983 81.2212C80.3983 81.2212 81.0155 81.8383 81.4269 81.4269C81.8383 81.0154 81.2212 80.3983 81.2212 80.3983L49.6456 46.3544" fill="#FCBF49"/>
<path d="M46.3544 49.6456L80.3983 81.2212C80.3983 81.2212 81.0155 81.8383 81.4269 81.4269C81.8383 81.0154 81.2212 80.3983 81.2212 80.3983L49.6456 46.3544" stroke="#843511"/>
<path d="M47.1771 48.8228L70.5245 70.5246L48.8228 47.1772" fill="#843511"/>
<path d="M55.4985 61.7008C57.7377 67.7192 62.7343 69.4705 64.4508 74.9627C66.1672 80.4549 70.3165 82.2437 71.8436 84.0239C73.3707 85.804 72.4772 87.6164 73.2032 87.6592C73.9292 87.7019 74.5819 85.5256 72.937 82.7769C71.2921 80.0282 68.71 80.0801 66.5537 73.3964C64.3974 66.7126 60.6059 66.5185 58.9322 60.3002" fill="#FCBF49"/>
<path d="M55.4985 61.7008C57.7377 67.7192 62.7343 69.4705 64.4508 74.9627C66.1672 80.4549 70.3165 82.2437 71.8436 84.0239C73.3707 85.804 72.4772 87.6164 73.2032 87.6592C73.9292 87.7019 74.5819 85.5256 72.937 82.7769C71.2921 80.0282 68.71 80.0801 66.5537 73.3964C64.3974 66.7126 60.6059 66.5185 58.9322 60.3002" stroke="#843511"/>
<path d="M57.0701 62.2305C59.7141 67.8065 63.9865 68.9906 65.5014 74.4418C65.1942 69.7611 60.5204 67.9705 58.201 61.8308" fill="#843511"/>
<path d="M45.8499 47.1094L29.7059 90.6454C29.7059 90.6454 29.372 91.4516 29.9095 91.6743C30.447 91.897 30.781 91.0907 30.781 91.0907L50.1501 48.8906" fill="#FCBF49"/>
<path d="M45.8499 47.1094L29.7059 90.6454C29.7059 90.6454 29.372 91.4516 29.9095 91.6743C30.447 91.897 30.781 91.0907 30.781 91.0907L50.1501 48.8906" stroke="#843511"/>
<path d="M46.9249 47.5547L35.8098 77.4298L49.075 48.4453" fill="#843511"/>
<path d="M38.2117 60.1708C33.5083 64.5427 33.8024 69.8291 29.3852 73.5167C24.9679 77.2044 24.9031 81.7224 23.8429 83.8144C22.7827 85.9065 20.7663 85.7746 21.0046 86.4617C21.2429 87.1488 23.5034 86.919 25.4134 84.3474C27.3234 81.7758 26.2873 79.4102 31.6371 74.8602C36.9869 70.3103 35.7153 66.7331 40.8197 62.8072" fill="#FCBF49"/>
<path d="M38.2117 60.1708C33.5083 64.5427 33.8024 69.8291 29.3852 73.5167C24.9679 77.2044 24.9031 81.7224 23.8429 83.8144C22.7827 85.9065 20.7663 85.7746 21.0046 86.4617C21.2429 87.1488 23.5034 86.919 25.4134 84.3474C27.3234 81.7758 26.2873 79.4102 31.6371 74.8602C36.9869 70.3103 35.7153 66.7331 40.8197 62.8072" stroke="#843511"/>
<path d="M38.3238 61.8255C34.1841 66.4021 34.7251 70.8023 30.2685 74.288C34.4754 72.213 34.3411 67.2098 39.1258 62.7173" fill="#843511"/>
<path d="M50.15 48.8906L66.2939 5.35465C66.2939 5.35465 66.6279 4.54835 66.0904 4.3257C65.5529 4.10305 65.2189 4.90934 65.2189 4.90934L45.8498 47.1094" fill="#FCBF49"/>
<path d="M50.15 48.8906L66.2939 5.35465C66.2939 5.35465 66.6279 4.54835 66.0904 4.3257C65.5529 4.10305 65.2189 4.90934 65.2189 4.90934L45.8498 47.1094" stroke="#843511"/>
<path d="M49.075 48.4453L60.1901 18.5702L46.9248 47.5547" fill="#843511"/>
<path d="M57.7882 35.8292C62.4916 31.4573 62.1974 26.1709 66.6147 22.4833C71.032 18.7957 71.0968 14.2777 72.157 12.1856C73.2172 10.0935 75.2336 10.2254 74.9953 9.53834C74.7569 8.85123 72.4965 9.08105 70.5865 11.6526C68.6765 14.2242 69.7126 16.5899 64.3628 21.1398C59.013 25.6897 60.2846 29.2669 55.1802 33.1928" fill="#FCBF49"/>
<path d="M57.7882 35.8292C62.4916 31.4573 62.1974 26.1709 66.6147 22.4833C71.032 18.7957 71.0968 14.2777 72.157 12.1856C73.2172 10.0935 75.2336 10.2254 74.9953 9.53834C74.7569 8.85123 72.4965 9.08105 70.5865 11.6526C68.6765 14.2242 69.7126 16.5899 64.3628 21.1398C59.013 25.6897 60.2846 29.2669 55.1802 33.1928" stroke="#843511"/>
<path d="M57.6761 34.1746C61.8158 29.5979 61.2748 25.1977 65.7313 21.712C61.5245 23.787 61.6588 28.7902 56.8741 33.2827" fill="#843511"/>
<path d="M48.8906 45.8499L5.35466 29.706C5.35466 29.706 4.54837 29.372 4.32572 29.9095C4.10306 30.447 4.90936 30.781 4.90936 30.781L47.1094 50.1501" fill="#FCBF49"/>
<path d="M48.8906 45.8499L5.35466 29.706C5.35466 29.706 4.54837 29.372 4.32571 29.9095C4.10306 30.447 4.90936 30.781 4.90936 30.781L47.1094 50.1501" stroke="#843511"/>
<path d="M48.4453 46.9249L18.5702 35.8098L47.5547 49.0751" fill="#843511"/>
<path d="M35.8291 38.2116C31.4572 33.5083 26.1708 33.8024 22.4832 29.3851C18.7956 24.9679 14.2776 24.9031 12.1855 23.8429C10.0934 22.7826 10.2254 20.7662 9.53826 21.0046C8.85115 21.2429 9.08098 23.5033 11.6526 25.4133C14.2241 27.3233 16.5898 26.2872 21.1397 31.637C25.6896 36.9869 29.2668 35.7153 33.1928 40.8196" fill="#FCBF49"/>
<path d="M35.8291 38.2116C31.4572 33.5083 26.1708 33.8024 22.4832 29.3851C18.7956 24.9679 14.2776 24.9031 12.1855 23.8429C10.0934 22.7826 10.2254 20.7662 9.53826 21.0046C8.85115 21.2429 9.08098 23.5033 11.6526 25.4133C14.2241 27.3233 16.5898 26.2872 21.1397 31.637C25.6896 36.9869 29.2668 35.7153 33.1928 40.8196" stroke="#843511"/>
<path d="M34.1744 38.3237C29.5978 34.184 25.1975 34.725 21.7119 30.2685C23.7869 34.4753 28.7901 34.341 33.2826 39.1257" fill="#843511"/>
<path d="M47.1094 50.1501L90.6453 66.294C90.6453 66.294 91.4516 66.628 91.6743 66.0905C91.8969 65.553 91.0906 65.219 91.0906 65.219L48.8906 45.8499" fill="#FCBF49"/>
<path d="M47.1094 50.1501L90.6453 66.294C90.6453 66.294 91.4516 66.628 91.6743 66.0905C91.8969 65.553 91.0906 65.219 91.0906 65.219L48.8906 45.8499" stroke="#843511"/>
<path d="M47.5547 49.0751L77.4298 60.1902L48.4453 46.9249" fill="#843511"/>
<path d="M60.1709 57.7884C64.5428 62.4917 69.8292 62.1976 73.5168 66.6149C77.2044 71.0321 81.7224 71.0969 83.8145 72.1571C85.9066 73.2174 85.7746 75.2338 86.4617 74.9954C87.1488 74.7571 86.919 72.4967 84.3474 70.5867C81.7759 68.6767 79.4102 69.7128 74.8603 64.363C70.3104 59.0131 66.7332 60.2847 62.8072 55.1804" fill="#FCBF49"/>
<path d="M60.1709 57.7884C64.5428 62.4917 69.8292 62.1976 73.5168 66.6149C77.2044 71.0321 81.7224 71.0969 83.8145 72.1571C85.9066 73.2174 85.7746 75.2338 86.4617 74.9954C87.1488 74.7571 86.919 72.4967 84.3474 70.5867C81.7759 68.6767 79.4102 69.7128 74.8603 64.363C70.3104 59.0131 66.7332 60.2847 62.8072 55.1804" stroke="#843511"/>
<path d="M61.8256 57.6763C66.4022 61.816 70.8025 61.275 74.2881 65.7315C72.2131 61.5247 67.2099 61.659 62.7174 56.8743" fill="#843511"/>
<path d="M47.1093 45.8499L4.9092 65.219C4.9092 65.219 4.10291 65.553 4.32556 66.0905C4.54821 66.628 5.35451 66.294 5.35451 66.294L48.8905 50.1501" fill="#FCBF49"/>
<path d="M47.1093 45.8499L4.9092 65.219C4.9092 65.219 4.10291 65.553 4.32556 66.0905C4.54821 66.628 5.35451 66.294 5.35451 66.294L48.8905 50.1501" stroke="#843511"/>
<path d="M47.5546 46.9249L18.5701 60.1902L48.4452 49.0751" fill="#843511"/>
<path d="M32.4724 49.6846C26.0552 49.4502 22.5251 53.3963 16.7941 52.8804C11.0631 52.3644 7.82256 55.5133 5.59356 56.243C3.36455 56.9726 2.03203 55.4535 1.7147 56.1079C1.39737 56.7623 3.15824 58.1981 6.3272 57.7303C9.49616 57.2625 10.4363 54.8571 17.4364 55.4227C24.4366 55.9883 26.0669 52.5597 32.4523 53.393" fill="#FCBF49"/>
<path d="M32.4724 49.6846C26.0552 49.4502 22.5251 53.3963 16.7941 52.8804C11.0631 52.3644 7.82256 55.5133 5.59356 56.243C3.36455 56.9726 2.03203 55.4535 1.7147 56.1079C1.39737 56.7623 3.15824 58.1981 6.3272 57.7303C9.49616 57.2625 10.4363 54.8571 17.4364 55.4227C24.4366 55.9883 26.0669 52.5597 32.4523 53.393" stroke="#843511"/>
<path d="M31.3816 50.9339C25.2182 51.2429 22.4893 54.7369 16.8733 54.0504C21.3153 55.5578 24.7581 51.925 31.318 52.1317" fill="#843511"/>
<path d="M48.8905 50.1501L91.0906 30.781C91.0906 30.781 91.8968 30.447 91.6742 29.9095C91.4515 29.372 90.6452 29.706 90.6452 29.706L47.1093 45.8499" fill="#FCBF49"/>
<path d="M48.8905 50.1501L91.0906 30.781C91.0906 30.781 91.8968 30.447 91.6742 29.9095C91.4515 29.372 90.6452 29.706 90.6452 29.706L47.1093 45.8499" stroke="#843511"/>
<path d="M48.4452 49.0751L77.4296 35.8098L47.5546 46.9249" fill="#843511"/>
<path d="M63.5274 46.3154C69.9446 46.5498 73.4746 42.6037 79.2057 43.1196C84.9367 43.6356 88.1772 40.4867 90.4062 39.7571C92.6352 39.0274 93.9677 40.5465 94.2851 39.8921C94.6024 39.2378 92.8415 37.8019 89.6726 38.2697C86.5036 38.7375 85.5635 41.1429 78.5633 40.5773C71.5631 40.0117 69.9328 43.4403 63.5474 42.607" fill="#FCBF49"/>
<path d="M63.5274 46.3154C69.9446 46.5498 73.4746 42.6037 79.2057 43.1196C84.9367 43.6356 88.1772 40.4867 90.4062 39.7571C92.6352 39.0274 93.9677 40.5465 94.2851 39.8921C94.6024 39.2378 92.8415 37.8019 89.6726 38.2697C86.5036 38.7375 85.5635 41.1429 78.5633 40.5773C71.5631 40.0117 69.9328 43.4403 63.5474 42.607" stroke="#843511"/>
<path d="M64.6182 45.0661C70.7816 44.7571 73.5105 41.2631 79.1265 41.9496C74.6845 40.4422 71.2417 44.075 64.6817 43.8683" fill="#843511"/>
<path d="M50.15 47.1094L30.7809 4.90934C30.7809 4.90934 30.4469 4.10305 29.9094 4.3257C29.3719 4.54835 29.7059 5.35464 29.7059 5.35464L45.8498 48.8906" fill="#FCBF49"/>
<path d="M50.15 47.1094L30.7809 4.90934C30.7809 4.90934 30.4469 4.10304 29.9094 4.3257C29.3719 4.54835 29.7059 5.35464 29.7059 5.35464L45.8498 48.8906" stroke="#843511"/>
<path d="M49.075 47.5547L35.8097 18.5702L46.9248 48.4453" fill="#843511"/>
<path d="M46.3152 32.4725C46.5496 26.0554 42.6036 22.5253 43.1195 16.7942C43.6355 11.0632 40.4866 7.82272 39.7569 5.59371C39.0273 3.3647 40.5464 2.03218 39.892 1.71485C39.2376 1.39752 37.8018 3.15839 38.2696 6.32735C38.7374 9.49631 41.1428 10.4364 40.5772 17.4366C40.0116 24.4368 43.4402 26.0671 42.6069 32.4525" fill="#FCBF49"/>
<path d="M46.3152 32.4725C46.5496 26.0554 42.6036 22.5253 43.1195 16.7942C43.6355 11.0632 40.4866 7.82272 39.7569 5.59371C39.0273 3.3647 40.5464 2.03218 39.892 1.71485C39.2376 1.39752 37.8018 3.15839 38.2696 6.32735C38.7374 9.49631 41.1428 10.4364 40.5772 17.4366C40.0116 24.4368 43.4402 26.0671 42.6069 32.4525" stroke="#843511"/>
<path d="M45.066 31.3818C44.757 25.2184 41.263 22.4895 41.9495 16.8735C40.4421 21.3155 44.0749 24.7583 43.8682 31.3182" fill="#843511"/>
<path d="M45.8497 48.8906L65.2188 91.0907C65.2188 91.0907 65.5528 91.897 66.0903 91.6743C66.6279 91.4516 66.2939 90.6454 66.2939 90.6454L50.15 47.1094" fill="#FCBF49"/>
<path d="M45.8497 48.8906L65.2188 91.0907C65.2188 91.0907 65.5528 91.897 66.0903 91.6743C66.6279 91.4517 66.2939 90.6454 66.2939 90.6454L50.15 47.1094" stroke="#843511"/>
<path d="M46.9248 48.4453L60.1901 77.4298L49.0749 47.5547" fill="#843511"/>
<path d="M49.6845 63.5275C49.4501 69.9446 53.3962 73.4747 52.8802 79.2058C52.3643 84.9368 55.5132 88.1773 56.2428 90.4063C56.9724 92.6353 55.4533 93.9678 56.1077 94.2851C56.7621 94.6025 58.198 92.8416 57.7302 89.6726C57.2624 86.5037 54.857 85.5636 55.4226 78.5634C55.9882 71.5632 52.5596 69.9329 53.3928 63.5475" fill="#FCBF49"/>
<path d="M49.6845 63.5275C49.4501 69.9446 53.3962 73.4747 52.8802 79.2058C52.3643 84.9368 55.5132 88.1773 56.2428 90.4063C56.9724 92.6353 55.4533 93.9678 56.1077 94.2851C56.7621 94.6025 58.198 92.8416 57.7302 89.6726C57.2624 86.5037 54.857 85.5636 55.4226 78.5634C55.9882 71.5632 52.5596 69.9329 53.3928 63.5475" stroke="#843511"/>
<path d="M50.9338 64.6182C51.2428 70.7816 54.7367 73.5105 54.0503 79.1265C55.5577 74.6845 51.9249 71.2417 52.1315 64.6818" fill="#843511"/>
<path d="M47.9999 66.9091C58.4431 66.9091 66.909 58.4432 66.909 48C66.909 37.5568 58.4431 29.0909 47.9999 29.0909C37.5567 29.0909 29.0908 37.5568 29.0908 48C29.0908 58.4432 37.5567 66.9091 47.9999 66.9091Z" fill="#FCBF49" stroke="#843511"/>
<path d="M59.9273 43.9273C56.5818 41.0182 52.3636 40.5818 50.0363 42.7636C48.3472 45.022 48.4977 47.6811 50.4727 50.4727C50.3273 50.4727 50.0363 50.6182 49.8909 50.7636C48.424 47.9701 48.1716 45.0935 49.1636 42.4727C52.3636 39.8545 56.7273 39.5636 59.9273 43.9273Z" fill="#843511"/>
<path d="M54.691 43.0546C52.8001 43.0546 52.3637 43.4909 51.491 44.2182C50.6183 44.9455 50.1819 44.8 50.0364 44.9455C49.891 45.0909 50.0364 45.5273 50.3273 45.3818C50.6183 45.2364 51.2001 44.9455 52.0728 44.2182C52.9455 43.4909 53.8183 43.4909 54.691 43.4909C57.3092 43.4909 58.7637 45.6727 59.0546 45.5273C59.3455 45.3818 57.6001 43.0546 54.691 43.0546Z" fill="#843511"/>
<path d="M58.0364 45.5273C56.1455 43.4909 52.6546 43.3455 51.2001 45.6727H51.7819C53.2364 43.3455 56.7273 44.3636 57.0183 45.3818V45.6727" fill="#843511"/>
<path d="M54.4 46.6909C55.123 46.6909 55.7091 46.1048 55.7091 45.3818C55.7091 44.6588 55.123 44.0727 54.4 44.0727C53.677 44.0727 53.0909 44.6588 53.0909 45.3818C53.0909 46.1048 53.677 46.6909 54.4 46.6909Z" fill="#843511"/>
<path d="M51.2001 45.6727C52.6546 46.9818 55.8546 47.1273 58.0364 45.5273L57.0183 45.3818C55.5637 46.9818 53.2364 46.8364 51.7819 45.6727V45.3818" fill="#843511"/>
<path d="M58.1818 46.2545C55.7091 48.1455 53.2364 48 51.7818 47.1273C50.3273 46.2545 50.3273 45.9636 50.6182 45.9636C50.9091 45.9636 51.2 46.2545 52.3637 46.8364C53.5273 47.4182 55.2727 47.4182 58.1818 46.2545Z" fill="#843511"/>
<path d="M51.0546 50.6182C51.2032 50.671 51.3348 50.7632 51.4352 50.8849C51.5357 51.0066 51.6013 51.1532 51.625 51.3092C51.6487 51.4652 51.6297 51.6248 51.57 51.7708C51.5103 51.9169 51.4121 52.044 51.2858 52.1387C51.1596 52.2333 51.0101 52.292 50.8531 52.3085C50.6962 52.3249 50.5377 52.2985 50.3946 52.232C50.2515 52.1656 50.1291 52.0616 50.0404 51.931C49.9517 51.8005 49.9 51.6484 49.8909 51.4909C49.7455 51.7818 49.1637 52.6545 48 52.6545H47.7091L48 53.0909C48.2909 53.0909 49.1637 53.0909 49.7455 52.6545C49.8684 52.831 50.033 52.9744 50.2246 53.0721C50.4162 53.1698 50.6289 53.2189 50.8439 53.2148C51.0589 53.2108 51.2696 53.1539 51.4574 53.0491C51.6452 52.9443 51.8043 52.7948 51.9206 52.6139C52.0369 52.433 52.1068 52.2262 52.1242 52.0118C52.1416 51.7975 52.1059 51.5821 52.0203 51.3848C51.9347 51.1876 51.8018 51.0144 51.6334 50.8807C51.4649 50.747 51.2661 50.6568 51.0546 50.6182Z" fill="#843511"/>
<path d="M52.8 56.7273C51.4909 55.8545 50.9091 54.5455 49.4546 54.5455C49.1637 54.5455 48.5818 54.6909 48 54.9818H47.7091L48 55.4182C48.5818 55.4182 49.4546 54.6909 50.4727 55.2727C51.4909 55.8545 52.0727 56.4364 52.8 56.7273Z" fill="#843511"/>
<path d="M52.3637 56.7273C49.4546 55.8545 48.8727 56.4364 48 56.4364H47.7091L48 57.0182C49.1637 57.0182 49.7455 56.1455 52.3637 56.7273Z" fill="#843511"/>
<path d="M52.8 56.7273C49.6 56.4364 50.6182 58.3273 48 58.3273H47.7091L48 58.7636C51.2 58.7636 49.7455 57.0182 52.8 56.7273Z" fill="#843511"/>
<path d="M50.6182 61.3818C50.6182 60.6874 50.3424 60.0215 49.8514 59.5305C49.3603 59.0395 48.6944 58.7636 48 58.7636C47.3056 58.7636 46.6397 59.0395 46.1487 59.5305C45.6577 60.0215 45.3818 60.6874 45.3818 61.3818C45.5217 60.7926 45.8562 60.2677 46.3313 59.8922C46.8065 59.5166 47.3944 59.3123 48 59.3123C48.6056 59.3123 49.1936 59.5166 49.6687 59.8922C50.1438 60.2677 50.4783 60.7926 50.6182 61.3818Z" fill="#843511"/>
<path d="M36.0727 43.9273C39.4182 41.0182 43.6364 40.5818 45.9637 42.7636C47.6528 45.022 47.5023 47.6811 45.5273 50.4727C45.6727 50.4727 45.9637 50.6182 46.1091 50.7636C47.576 47.9701 47.8284 45.0935 46.8364 42.4727C43.6364 39.8545 39.2727 39.5636 36.0727 43.9273Z" fill="#843511"/>
<path d="M41.309 43.0546C43.1999 43.0546 43.6363 43.4909 44.509 44.2182C45.3817 44.9455 45.8181 44.8 45.9636 44.9455C46.109 45.0909 45.9636 45.5273 45.6727 45.3818C45.3817 45.2364 44.7999 44.9455 43.9272 44.2182C43.0545 43.4909 42.1817 43.4909 41.309 43.4909C38.6908 43.4909 37.2363 45.6727 36.9454 45.5273C36.6545 45.3818 38.3999 43.0546 41.309 43.0546Z" fill="#843511"/>
<path d="M37.9636 45.5273C39.8545 43.4909 43.3454 43.3455 44.7999 45.6727H44.2181C42.7636 43.3455 39.2727 44.3636 38.9817 45.3818V45.6727" fill="#843511"/>
<path d="M41.6 46.6909C40.877 46.6909 40.2909 46.1048 40.2909 45.3818C40.2909 44.6588 40.877 44.0727 41.6 44.0727C42.323 44.0727 42.9091 44.6588 42.9091 45.3818C42.9091 46.1048 42.323 46.6909 41.6 46.6909Z" fill="#843511"/>
<path d="M44.7999 45.6727C43.3454 46.9818 40.1454 47.1273 37.9636 45.5273L38.9817 45.3818C40.4363 46.9818 42.7636 46.8364 44.2181 45.6727V45.3818" fill="#843511"/>
<path d="M37.8182 46.2545C40.2909 48.1455 42.7636 48 44.2182 47.1273C45.6727 46.2545 45.6727 45.9636 45.3818 45.9636C45.0909 45.9636 44.8 46.2545 43.6363 46.8364C42.4727 47.4182 40.7273 47.4182 37.8182 46.2545Z" fill="#843511"/>
<path d="M44.9454 50.6182C44.7968 50.671 44.6652 50.7632 44.5648 50.8849C44.4643 51.0066 44.3987 51.1532 44.375 51.3092C44.3513 51.4652 44.3703 51.6248 44.43 51.7708C44.4897 51.9169 44.5879 52.044 44.7142 52.1387C44.8404 52.2333 44.9899 52.292 45.1469 52.3085C45.3038 52.3249 45.4623 52.2985 45.6054 52.232C45.7485 52.1656 45.8709 52.0616 45.9596 51.931C46.0483 51.8005 46.1 51.6484 46.1091 51.4909C46.2545 51.7818 46.8363 52.6545 48 52.6545H48.2909L48 53.0909C47.7091 53.0909 46.8363 53.0909 46.2545 52.6545C46.1316 52.831 45.967 52.9744 45.7754 53.0721C45.5838 53.1698 45.3711 53.2189 45.1561 53.2148C44.9411 53.2108 44.7304 53.1539 44.5426 53.0491C44.3548 52.9443 44.1957 52.7948 44.0794 52.6139C43.9631 52.433 43.8932 52.2262 43.8758 52.0118C43.8584 51.7975 43.8941 51.5821 43.9797 51.3848C44.0653 51.1876 44.1982 51.0144 44.3666 50.8807C44.5351 50.747 44.7339 50.6568 44.9454 50.6182Z" fill="#843511"/>
<path d="M43.2 56.7273C44.5091 55.8545 45.0909 54.5455 46.5454 54.5455C46.8363 54.5455 47.4182 54.6909 48 54.9818H48.2909L48 55.4182C47.4182 55.4182 46.5454 54.6909 45.5273 55.2727C44.5091 55.8545 43.9273 56.4364 43.2 56.7273Z" fill="#843511"/>
<path d="M43.6363 56.7273C46.5454 55.8545 47.1273 56.4364 48 56.4364H48.2909L48 57.0182C46.8363 57.0182 46.2545 56.1455 43.6363 56.7273Z" fill="#843511"/>
<path d="M43.2 56.7273C46.4 56.4364 45.3818 58.3273 48 58.3273H48.2909L48 58.7636C44.8 58.7636 46.2545 57.0182 43.2 56.7273Z" fill="#843511"/>
<path d="M45.3818 61.3818C45.3818 60.6874 45.6576 60.0215 46.1486 59.5305C46.6397 59.0395 47.3056 58.7636 48 58.7636C48.6944 58.7636 49.3603 59.0395 49.8513 59.5305C50.3423 60.0215 50.6182 60.6874 50.6182 61.3818C50.4783 60.7926 50.1438 60.2677 49.6687 59.8922C49.1935 59.5166 48.6056 59.3123 48 59.3123C47.3944 59.3123 46.8064 59.5166 46.3313 59.8922C45.8562 60.2677 45.5217 60.7926 45.3818 61.3818Z" fill="#843511"/>
</g>
<defs>
<clipPath id="clip0_1_24647">
<rect width="96" height="96" fill="white"/>
</clipPath>
</defs>
</svg>
