<svg viewBox="0 0 96 96" fill="none" xmlns="http://www.w3.org/2000/svg">
<g clip-path="url(#clip0_44_1214)">
<path d="M45.6727 48L47.4182 94.4C47.4182 94.4 47.4182 95.2727 48 95.2727C48.5818 95.2727 48.5818 94.4 48.5818 94.4L50.3273 48" fill="#FCBF49"/>
<path d="M45.6727 48L47.4182 94.4C47.4182 94.4 47.4182 95.2727 48 95.2727C48.5818 95.2727 48.5818 94.4 48.5818 94.4L50.3273 48" stroke="#843511"/>
<path d="M46.8364 48L48.0001 79.8545L49.1637 48" fill="#843511"/>
<path d="M43.6144 62.9901C40.9421 68.8291 43.2369 73.6006 40.567 78.6979C37.8972 83.7952 39.5663 87.9941 39.3874 90.3327C39.2085 92.6712 37.2951 93.321 37.7782 93.8646C38.2614 94.4082 40.2618 93.3308 41.0423 90.224C41.8228 87.1173 39.9603 85.3282 43.1617 79.0774C46.3631 72.8265 43.8193 70.0082 47.0328 64.4278" fill="#FCBF49"/>
<path d="M43.6144 62.9901C40.9421 68.8291 43.2369 73.6006 40.567 78.6979C37.8972 83.7952 39.5663 87.9941 39.3874 90.3327C39.2085 92.6712 37.2951 93.321 37.7782 93.8646C38.2614 94.4082 40.2618 93.3308 41.0423 90.224C41.8228 87.1173 39.9603 85.3282 43.1617 79.0774C46.3631 72.8265 43.8193 70.0082 47.0328 64.4278" stroke="#843511"/>
<path d="M44.3511 64.476C42.2779 70.2885 44.4616 74.1467 41.6783 79.0725C44.7708 75.5455 42.7321 70.9746 45.4334 64.9931" fill="#843511"/>
<path d="M50.3274 48L48.5819 1.6C48.5819 1.6 48.5819 0.727276 48.0001 0.727276C47.4183 0.727276 47.4183 1.6 47.4183 1.6L45.6728 48" fill="#FCBF49"/>
<path d="M50.3274 48L48.5819 1.6C48.5819 1.6 48.5819 0.727274 48.0001 0.727274C47.4183 0.727274 47.4183 1.6 47.4183 1.6L45.6728 48" stroke="#843511"/>
<path d="M49.1637 48L48.0001 16.1455L46.8364 48" fill="#843511"/>
<path d="M52.3857 33.0099C55.058 27.1709 52.7632 22.3994 55.4331 17.3021C58.1029 12.2048 56.4338 8.00589 56.6127 5.66734C56.7916 3.32879 58.705 2.67904 58.2219 2.13544C57.7388 1.59184 55.7384 2.66919 54.9578 5.77595C54.1773 8.88271 56.0399 10.6718 52.8385 16.9226C49.6371 23.1735 52.1808 25.9918 48.9674 31.5722" fill="#FCBF49"/>
<path d="M52.3857 33.0099C55.058 27.1709 52.7632 22.3994 55.4331 17.3021C58.1029 12.2048 56.4338 8.00589 56.6127 5.66734C56.7916 3.32879 58.705 2.67904 58.2219 2.13544C57.7388 1.59184 55.7384 2.66919 54.9578 5.77595C54.1773 8.88271 56.0399 10.6718 52.8385 16.9226C49.6371 23.1735 52.1808 25.9918 48.9674 31.5722" stroke="#843511"/>
<path d="M51.649 31.524C53.7222 25.7115 51.5385 21.8533 54.3218 16.9275C51.2293 20.4545 53.268 25.0254 50.5667 31.0069" fill="#843511"/>
<path d="M48 45.6726L1.6 47.4181C1.6 47.4181 0.727276 47.4181 0.727276 47.9999C0.727276 48.5817 1.6 48.5817 1.6 48.5817L48 50.3272" fill="#FCBF49"/>
<path d="M48 45.6726L1.6 47.4181C1.6 47.4181 0.727274 47.4181 0.727274 47.9999C0.727274 48.5817 1.6 48.5817 1.6 48.5817L48 50.3272" stroke="#843511"/>
<path d="M48 46.8362L16.1455 47.9998L48 49.1635" fill="#843511"/>
<path d="M33.0098 43.6141C27.1708 40.9418 22.3993 43.2366 17.302 40.5668C12.2046 37.897 8.00577 39.5661 5.66722 39.3872C3.32867 39.2082 2.67891 37.2948 2.13531 37.778C1.59172 38.2611 2.66907 40.2615 5.77583 41.042C8.88259 41.8225 10.6717 39.96 16.9225 43.1614C23.1734 46.3628 25.9917 43.8191 31.5721 47.0325" fill="#FCBF49"/>
<path d="M33.0098 43.6141C27.1708 40.9418 22.3993 43.2366 17.302 40.5668C12.2046 37.897 8.00577 39.5661 5.66722 39.3872C3.32867 39.2082 2.67891 37.2948 2.13531 37.778C1.59171 38.2611 2.66907 40.2615 5.77583 41.042C8.88259 41.8225 10.6717 39.96 16.9225 43.1614C23.1734 46.3628 25.9917 43.8191 31.5721 47.0325" stroke="#843511"/>
<path d="M31.524 44.3509C25.7115 42.2777 21.8533 44.4614 16.9275 41.678C20.4545 44.7706 25.0254 42.7318 31.0069 45.4331" fill="#843511"/>
<path d="M48 50.3271L94.4 48.5817C94.4 48.5817 95.2727 48.5817 95.2727 47.9999C95.2727 47.4181 94.4 47.4181 94.4 47.4181L48 45.6726" fill="#FCBF49"/>
<path d="M48 50.3271L94.4 48.5817C94.4 48.5817 95.2727 48.5817 95.2727 47.9999C95.2727 47.4181 94.4 47.4181 94.4 47.4181L48 45.6726" stroke="#843511"/>
<path d="M48 49.1636L79.8545 47.9999L48 46.8363" fill="#843511"/>
<path d="M62.9902 52.3856C68.8292 55.0579 73.6007 52.7631 78.698 55.433C83.7954 58.1028 87.9942 56.4337 90.3328 56.6126C92.6713 56.7915 93.3211 58.7049 93.8647 58.2218C94.4083 57.7386 93.3309 55.7382 90.2242 54.9577C87.1174 54.1772 85.3283 56.0397 79.0775 52.8383C72.8266 49.6369 70.0083 52.1807 64.4279 48.9672" fill="#FCBF49"/>
<path d="M62.9902 52.3856C68.8292 55.0579 73.6007 52.7631 78.698 55.433C83.7954 58.1028 87.9942 56.4337 90.3328 56.6126C92.6713 56.7915 93.3211 58.7049 93.8647 58.2218C94.4083 57.7386 93.3309 55.7382 90.2242 54.9577C87.1174 54.1772 85.3283 56.0397 79.0775 52.8383C72.8266 49.6369 70.0083 52.1807 64.4279 48.9672" stroke="#843511"/>
<path d="M64.476 51.6489C70.2885 53.7221 74.1467 51.5384 79.0725 54.3217C75.5455 51.2292 70.9746 53.2679 64.9931 50.5666" fill="#843511"/>
<path d="M46.3544 46.354L14.7788 80.398C14.7788 80.398 14.1617 81.0151 14.5731 81.4265C14.9845 81.8379 15.6017 81.2208 15.6017 81.2208L49.6456 49.6453" fill="#FCBF49"/>
<path d="M46.3544 46.354L14.7788 80.398C14.7788 80.398 14.1617 81.0151 14.5731 81.4265C14.9845 81.8379 15.6017 81.2208 15.6017 81.2208L49.6456 49.6453" stroke="#843511"/>
<path d="M47.1771 47.177L25.4754 70.5244L48.8228 48.8226" fill="#843511"/>
<path d="M34.2991 55.4983C28.2807 57.7375 26.5295 62.7341 21.0373 64.4506C15.545 66.1671 13.7562 70.3164 11.9761 71.8435C10.196 73.3706 8.38356 72.4771 8.34081 73.2031C8.29806 73.9291 10.4744 74.5818 13.2231 72.9369C15.9718 71.292 15.9199 68.7099 22.6036 66.5536C29.2874 64.3973 29.4815 60.6058 35.6997 58.9321" fill="#FCBF49"/>
<path d="M34.2991 55.4983C28.2807 57.7375 26.5295 62.7341 21.0373 64.4506C15.545 66.1671 13.7562 70.3164 11.9761 71.8435C10.196 73.3706 8.38356 72.4771 8.34081 73.2031C8.29806 73.9291 10.4744 74.5818 13.2231 72.9369C15.9718 71.292 15.9199 68.7099 22.6036 66.5536C29.2874 64.3973 29.4815 60.6058 35.6997 58.9321" stroke="#843511"/>
<path d="M33.7695 57.0701C28.1936 59.7141 27.0095 63.9865 21.5583 65.5014C26.239 65.1942 28.0295 60.5204 34.1692 58.201" fill="#843511"/>
<path d="M49.6456 49.6455L81.2212 15.6015C81.2212 15.6015 81.8383 14.9844 81.4269 14.573C81.0155 14.1616 80.3983 14.7787 80.3983 14.7787L46.3544 46.3542" fill="#FCBF49"/>
<path d="M49.6456 49.6455L81.2212 15.6015C81.2212 15.6015 81.8383 14.9844 81.4269 14.573C81.0155 14.1616 80.3983 14.7787 80.3983 14.7787L46.3544 46.3542" stroke="#843511"/>
<path d="M48.8229 48.8225L70.5246 25.4751L47.1772 47.1769" fill="#843511"/>
<path d="M61.7009 40.5012C67.7193 38.262 69.4705 33.2654 74.9627 31.5489C80.455 29.8324 82.2438 25.6831 84.0239 24.156C85.804 22.6289 87.6164 23.5224 87.6592 22.7964C87.7019 22.0704 85.5256 21.4177 82.7769 23.0626C80.0282 24.7075 80.0801 27.2896 73.3964 29.4459C66.7126 31.6022 66.5185 35.3937 60.3003 37.0674" fill="#FCBF49"/>
<path d="M61.7009 40.5012C67.7193 38.262 69.4705 33.2654 74.9627 31.5489C80.455 29.8324 82.2438 25.6831 84.0239 24.156C85.804 22.6289 87.6164 23.5224 87.6592 22.7964C87.7019 22.0704 85.5256 21.4177 82.7769 23.0626C80.0282 24.7075 80.0801 27.2896 73.3964 29.4459C66.7126 31.6022 66.5185 35.3937 60.3003 37.0674" stroke="#843511"/>
<path d="M62.2306 38.9295C67.8066 36.2854 68.9906 32.0131 74.4418 30.4981C69.7611 30.8053 67.9706 35.4791 61.8309 37.7986" fill="#843511"/>
<path d="M49.6456 46.3542L15.6017 14.7787C15.6017 14.7787 14.9845 14.1616 14.5731 14.573C14.1617 14.9844 14.7788 15.6015 14.7788 15.6015L46.3544 49.6455" fill="#FCBF49"/>
<path d="M49.6456 46.3542L15.6017 14.7787C15.6017 14.7787 14.9845 14.1616 14.5731 14.573C14.1617 14.9844 14.7788 15.6015 14.7788 15.6015L46.3544 49.6455" stroke="#843511"/>
<path d="M48.8229 47.1772L25.4755 25.4755L47.1772 48.8229" fill="#843511"/>
<path d="M40.5015 34.2993C38.2623 28.2809 33.2657 26.5296 31.5492 21.0374C29.8328 15.5452 25.6835 13.7563 24.1564 11.9762C22.6293 10.1961 23.5228 8.38369 22.7968 8.34094C22.0708 8.29819 21.4181 10.4745 23.063 13.2232C24.7079 15.9719 27.29 15.92 29.4463 22.6037C31.6026 29.2875 35.3941 29.4816 37.0678 35.6998" fill="#FCBF49"/>
<path d="M40.5015 34.2993C38.2623 28.2809 33.2657 26.5296 31.5492 21.0374C29.8328 15.5452 25.6835 13.7563 24.1564 11.9762C22.6293 10.1961 23.5228 8.38369 22.7968 8.34094C22.0708 8.29819 21.4181 10.4745 23.063 13.2232C24.7079 15.9719 27.29 15.92 29.4463 22.6037C31.6026 29.2875 35.3941 29.4816 37.0678 35.6998" stroke="#843511"/>
<path d="M38.9299 33.7697C36.2859 28.1937 32.0135 27.0096 30.4986 21.5584C30.8058 26.2391 35.4796 28.0296 37.799 34.1693" fill="#843511"/>
<path d="M46.3544 49.6455L80.3983 81.221C80.3983 81.221 81.0155 81.8381 81.4269 81.4267C81.8383 81.0153 81.2212 80.3982 81.2212 80.3982L49.6456 46.3542" fill="#FCBF49"/>
<path d="M46.3544 49.6455L80.3983 81.221C80.3983 81.221 81.0155 81.8381 81.4269 81.4267C81.8383 81.0153 81.2212 80.3982 81.2212 80.3982L49.6456 46.3542" stroke="#843511"/>
<path d="M47.1771 48.8225L70.5245 70.5243L48.8228 47.1769" fill="#843511"/>
<path d="M55.4985 61.7005C57.7377 67.7189 62.7343 69.4702 64.4508 74.9624C66.1672 80.4546 70.3165 82.2434 71.8436 84.0235C73.3707 85.8036 72.4772 87.6161 73.2032 87.6588C73.9292 87.7016 74.5819 85.5253 72.937 82.7765C71.2921 80.0278 68.71 80.0798 66.5537 73.396C64.3974 66.7123 60.6059 66.5181 58.9322 60.2999" fill="#FCBF49"/>
<path d="M55.4985 61.7005C57.7377 67.7189 62.7343 69.4702 64.4508 74.9624C66.1672 80.4546 70.3165 82.2434 71.8436 84.0235C73.3707 85.8036 72.4772 87.6161 73.2032 87.6588C73.9292 87.7016 74.5819 85.5253 72.937 82.7765C71.2921 80.0278 68.71 80.0798 66.5537 73.396C64.3974 66.7123 60.6059 66.5181 58.9322 60.2999" stroke="#843511"/>
<path d="M57.0701 62.2301C59.7141 67.8061 63.9865 68.9902 65.5014 74.4414C65.1942 69.7607 60.5204 67.9701 58.201 61.8304" fill="#843511"/>
<path d="M45.8499 47.1094L29.7059 90.6453C29.7059 90.6453 29.372 91.4516 29.9095 91.6743C30.447 91.8969 30.781 91.0906 30.781 91.0906L50.1501 48.8906" fill="#FCBF49"/>
<path d="M45.8499 47.1094L29.7059 90.6453C29.7059 90.6453 29.372 91.4516 29.9095 91.6743C30.447 91.8969 30.781 91.0906 30.781 91.0906L50.1501 48.8906" stroke="#843511"/>
<path d="M46.9249 47.5547L35.8098 77.4298L49.075 48.4453" fill="#843511"/>
<path d="M38.2117 60.1707C33.5083 64.5426 33.8024 69.8291 29.3852 73.5167C24.9679 77.2043 24.9031 81.7223 23.8429 83.8144C22.7827 85.9064 20.7663 85.7745 21.0046 86.4616C21.2429 87.1487 23.5034 86.9189 25.4134 84.3473C27.3234 81.7757 26.2873 79.4101 31.6371 74.8602C36.9869 70.3102 35.7153 66.7331 40.8197 62.8071" fill="#FCBF49"/>
<path d="M38.2117 60.1707C33.5083 64.5426 33.8024 69.8291 29.3852 73.5167C24.9679 77.2043 24.9031 81.7223 23.8429 83.8144C22.7827 85.9064 20.7663 85.7745 21.0046 86.4616C21.2429 87.1487 23.5034 86.9189 25.4134 84.3473C27.3234 81.7757 26.2873 79.4101 31.6371 74.8602C36.9869 70.3102 35.7153 66.7331 40.8197 62.8071" stroke="#843511"/>
<path d="M38.3238 61.8253C34.1841 66.402 34.7251 70.8022 30.2685 74.2879C34.4754 72.2129 34.3411 67.2097 39.1258 62.7172" fill="#843511"/>
<path d="M50.15 48.8904L66.2939 5.35442C66.2939 5.35442 66.6279 4.54812 66.0904 4.32547C65.5529 4.10282 65.2189 4.90911 65.2189 4.90911L45.8498 47.1092" fill="#FCBF49"/>
<path d="M50.15 48.8904L66.2939 5.35442C66.2939 5.35442 66.6279 4.54812 66.0904 4.32547C65.5529 4.10282 65.2189 4.90911 65.2189 4.90911L45.8498 47.1092" stroke="#843511"/>
<path d="M49.075 48.4451L60.1901 18.57L46.9248 47.5545" fill="#843511"/>
<path d="M57.7882 35.829C62.4916 31.4571 62.1974 26.1707 66.6147 22.4831C71.032 18.7955 71.0968 14.2775 72.157 12.1854C73.2172 10.0933 75.2336 10.2253 74.9953 9.53815C74.7569 8.85104 72.4965 9.08086 70.5865 11.6524C68.6765 14.224 69.7126 16.5897 64.3628 21.1396C59.013 25.6895 60.2846 29.2667 55.1802 33.1926" fill="#FCBF49"/>
<path d="M57.7882 35.829C62.4916 31.4571 62.1974 26.1707 66.6147 22.4831C71.032 18.7955 71.0968 14.2775 72.157 12.1854C73.2172 10.0933 75.2336 10.2253 74.9953 9.53814C74.7569 8.85103 72.4965 9.08086 70.5865 11.6524C68.6765 14.224 69.7126 16.5897 64.3628 21.1396C59.013 25.6895 60.2846 29.2667 55.1802 33.1926" stroke="#843511"/>
<path d="M57.6761 34.1744C61.8158 29.5978 61.2748 25.1975 65.7313 21.7119C61.5245 23.7869 61.6588 28.7901 56.8741 33.2826" fill="#843511"/>
<path d="M48.8906 45.8499L5.35466 29.7059C5.35466 29.7059 4.54837 29.372 4.32572 29.9095C4.10306 30.447 4.90936 30.781 4.90936 30.781L47.1094 50.1501" fill="#FCBF49"/>
<path d="M48.8906 45.8499L5.35466 29.7059C5.35466 29.7059 4.54837 29.372 4.32571 29.9095C4.10306 30.447 4.90936 30.781 4.90936 30.781L47.1094 50.1501" stroke="#843511"/>
<path d="M48.4453 46.9248L18.5702 35.8097L47.5547 49.0749" fill="#843511"/>
<path d="M35.8291 38.2115C31.4572 33.5082 26.1708 33.8023 22.4832 29.385C18.7956 24.9678 14.2776 24.903 12.1855 23.8428C10.0934 22.7826 10.2254 20.7661 9.53826 21.0045C8.85115 21.2428 9.08098 23.5032 11.6526 25.4132C14.2241 27.3232 16.5898 26.2871 21.1397 31.637C25.6896 36.9868 29.2668 35.7152 33.1928 40.8195" fill="#FCBF49"/>
<path d="M35.8291 38.2115C31.4572 33.5082 26.1708 33.8023 22.4832 29.385C18.7956 24.9678 14.2776 24.903 12.1855 23.8428C10.0934 22.7826 10.2254 20.7661 9.53826 21.0045C8.85115 21.2428 9.08098 23.5032 11.6526 25.4132C14.2241 27.3232 16.5898 26.2871 21.1397 31.637C25.6896 36.9868 29.2668 35.7152 33.1928 40.8195" stroke="#843511"/>
<path d="M34.1744 38.3236C29.5978 34.184 25.1975 34.7249 21.7119 30.2684C23.7869 34.4753 28.7901 34.341 33.2826 39.1257" fill="#843511"/>
<path d="M47.1094 50.1499L90.6453 66.2938C90.6453 66.2938 91.4516 66.6278 91.6743 66.0903C91.8969 65.5527 91.0906 65.2188 91.0906 65.2188L48.8906 45.8497" fill="#FCBF49"/>
<path d="M47.1094 50.1499L90.6453 66.2938C90.6453 66.2938 91.4516 66.6278 91.6743 66.0903C91.8969 65.5527 91.0906 65.2188 91.0906 65.2188L48.8906 45.8497" stroke="#843511"/>
<path d="M47.5547 49.075L77.4298 60.1901L48.4453 46.9248" fill="#843511"/>
<path d="M60.1709 57.7882C64.5428 62.4916 69.8292 62.1974 73.5168 66.6147C77.2044 71.032 81.7224 71.0968 83.8145 72.157C85.9066 73.2172 85.7746 75.2336 86.4617 74.9953C87.1488 74.7569 86.919 72.4965 84.3474 70.5865C81.7759 68.6765 79.4102 69.7126 74.8603 64.3628C70.3104 59.013 66.7332 60.2846 62.8072 55.1802" fill="#FCBF49"/>
<path d="M60.1709 57.7882C64.5428 62.4916 69.8292 62.1974 73.5168 66.6147C77.2044 71.032 81.7224 71.0968 83.8145 72.157C85.9066 73.2172 85.7746 75.2336 86.4617 74.9953C87.1488 74.7569 86.919 72.4965 84.3474 70.5865C81.7759 68.6765 79.4102 69.7126 74.8603 64.3628C70.3104 59.013 66.7332 60.2846 62.8072 55.1802" stroke="#843511"/>
<path d="M61.8256 57.6761C66.4022 61.8158 70.8025 61.2748 74.2881 65.7313C72.2131 61.5245 67.2099 61.6588 62.7174 56.8741" fill="#843511"/>
<path d="M47.1093 45.8501L4.9092 65.2192C4.9092 65.2192 4.10291 65.5532 4.32556 66.0907C4.54821 66.6282 5.35451 66.2943 5.35451 66.2943L48.8905 50.1503" fill="#FCBF49"/>
<path d="M47.1093 45.8501L4.9092 65.2192C4.9092 65.2192 4.10291 65.5532 4.32556 66.0907C4.54821 66.6282 5.35451 66.2943 5.35451 66.2943L48.8905 50.1503" stroke="#843511"/>
<path d="M47.5546 46.925L18.5701 60.1903L48.4452 49.0752" fill="#843511"/>
<path d="M32.4724 49.6846C26.0552 49.4502 22.5251 53.3963 16.7941 52.8804C11.0631 52.3644 7.82256 55.5133 5.59356 56.2429C3.36455 56.9726 2.03203 55.4535 1.7147 56.1079C1.39737 56.7622 3.15824 58.1981 6.3272 57.7303C9.49616 57.2625 10.4363 54.8571 17.4364 55.4227C24.4366 55.9883 26.0669 52.5597 32.4523 53.393" fill="#FCBF49"/>
<path d="M32.4724 49.6846C26.0552 49.4502 22.5251 53.3963 16.7941 52.8804C11.0631 52.3644 7.82256 55.5133 5.59356 56.2429C3.36455 56.9726 2.03203 55.4535 1.7147 56.1079C1.39737 56.7622 3.15824 58.1981 6.3272 57.7303C9.49616 57.2625 10.4363 54.8571 17.4364 55.4227C24.4366 55.9883 26.0669 52.5597 32.4523 53.393" stroke="#843511"/>
<path d="M31.3816 50.9339C25.2182 51.2429 22.4893 54.7369 16.8733 54.0504C21.3153 55.5578 24.7581 51.925 31.318 52.1317" fill="#843511"/>
<path d="M48.8905 50.1499L91.0906 30.7808C91.0906 30.7808 91.8968 30.4468 91.6742 29.9093C91.4515 29.3718 90.6452 29.7057 90.6452 29.7057L47.1093 45.8497" fill="#FCBF49"/>
<path d="M48.8905 50.1499L91.0906 30.7808C91.0906 30.7808 91.8968 30.4468 91.6742 29.9093C91.4515 29.3718 90.6452 29.7057 90.6452 29.7057L47.1093 45.8497" stroke="#843511"/>
<path d="M48.4452 49.075L77.4296 35.8097L47.5546 46.9248" fill="#843511"/>
<path d="M63.5274 46.3154C69.9446 46.5498 73.4746 42.6037 79.2057 43.1196C84.9367 43.6356 88.1772 40.4867 90.4062 39.7571C92.6352 39.0274 93.9677 40.5465 94.2851 39.8921C94.6024 39.2378 92.8415 37.8019 89.6726 38.2697C86.5036 38.7375 85.5635 41.1429 78.5633 40.5773C71.5631 40.0117 69.9328 43.4403 63.5474 42.607" fill="#FCBF49"/>
<path d="M63.5274 46.3154C69.9446 46.5498 73.4746 42.6037 79.2057 43.1196C84.9367 43.6356 88.1772 40.4867 90.4062 39.7571C92.6352 39.0274 93.9677 40.5465 94.2851 39.8921C94.6024 39.2378 92.8415 37.8019 89.6726 38.2697C86.5036 38.7375 85.5635 41.1429 78.5633 40.5773C71.5631 40.0117 69.9328 43.4403 63.5474 42.607" stroke="#843511"/>
<path d="M64.6182 45.0661C70.7816 44.7571 73.5105 41.2631 79.1265 41.9496C74.6845 40.4422 71.2417 44.075 64.6817 43.8683" fill="#843511"/>
<path d="M50.15 47.1094L30.7809 4.90932C30.7809 4.90932 30.4469 4.10303 29.9094 4.32568C29.3719 4.54833 29.7059 5.35463 29.7059 5.35463L45.8498 48.8906" fill="#FCBF49"/>
<path d="M50.15 47.1094L30.7809 4.90932C30.7809 4.90932 30.4469 4.10303 29.9094 4.32568C29.3719 4.54833 29.7059 5.35463 29.7059 5.35463L45.8498 48.8906" stroke="#843511"/>
<path d="M49.075 47.5547L35.8097 18.5702L46.9248 48.4453" fill="#843511"/>
<path d="M46.3152 32.4724C46.5496 26.0552 42.6036 22.5251 43.1195 16.7941C43.6355 11.0631 40.4866 7.82256 39.7569 5.59356C39.0273 3.36455 40.5464 2.03203 39.892 1.7147C39.2376 1.39737 37.8018 3.15824 38.2696 6.3272C38.7374 9.49616 41.1428 10.4363 40.5772 17.4364C40.0116 24.4366 43.4402 26.0669 42.6069 32.4523" fill="#FCBF49"/>
<path d="M46.3152 32.4724C46.5496 26.0552 42.6036 22.5251 43.1195 16.7941C43.6355 11.0631 40.4866 7.82256 39.7569 5.59356C39.0273 3.36455 40.5464 2.03203 39.892 1.7147C39.2376 1.39737 37.8018 3.15824 38.2696 6.3272C38.7374 9.49616 41.1428 10.4363 40.5772 17.4364C40.0116 24.4366 43.4402 26.0669 42.6069 32.4523" stroke="#843511"/>
<path d="M45.066 31.3816C44.757 25.2182 41.263 22.4893 41.9495 16.8733C40.4421 21.3153 44.0749 24.7581 43.8682 31.318" fill="#843511"/>
<path d="M45.8497 48.8904L65.2188 91.0904C65.2188 91.0904 65.5528 91.8967 66.0903 91.6741C66.6279 91.4514 66.2939 90.6451 66.2939 90.6451L50.15 47.1092" fill="#FCBF49"/>
<path d="M45.8497 48.8904L65.2188 91.0904C65.2188 91.0904 65.5528 91.8967 66.0903 91.6741C66.6279 91.4514 66.2939 90.6451 66.2939 90.6451L50.15 47.1092" stroke="#843511"/>
<path d="M46.9248 48.4451L60.1901 77.4295L49.0749 47.5545" fill="#843511"/>
<path d="M49.6845 63.5274C49.4501 69.9446 53.3962 73.4746 52.8802 79.2057C52.3643 84.9367 55.5132 88.1772 56.2428 90.4062C56.9724 92.6352 55.4533 93.9677 56.1077 94.2851C56.7621 94.6024 58.198 92.8415 57.7302 89.6726C57.2624 86.5036 54.857 85.5635 55.4226 78.5633C55.9882 71.5631 52.5596 69.9328 53.3928 63.5474" fill="#FCBF49"/>
<path d="M49.6845 63.5274C49.4501 69.9446 53.3962 73.4746 52.8802 79.2057C52.3643 84.9367 55.5132 88.1772 56.2428 90.4062C56.9724 92.6352 55.4533 93.9677 56.1077 94.2851C56.7621 94.6024 58.198 92.8415 57.7302 89.6726C57.2624 86.5036 54.857 85.5635 55.4226 78.5633C55.9882 71.5631 52.5596 69.9328 53.3928 63.5474" stroke="#843511"/>
<path d="M50.9338 64.6182C51.2428 70.7816 54.7367 73.5105 54.0503 79.1265C55.5577 74.6845 51.9249 71.2417 52.1315 64.6817" fill="#843511"/>
<path d="M47.9999 66.909C58.4431 66.909 66.909 58.4431 66.909 47.9999C66.909 37.5567 58.4431 29.0908 47.9999 29.0908C37.5567 29.0908 29.0908 37.5567 29.0908 47.9999C29.0908 58.4431 37.5567 66.909 47.9999 66.909Z" fill="#FCBF49" stroke="#843511"/>
<path d="M59.9273 44.26C55.5 40.0481 52.3636 41.0774 50.0363 43.153C48.3472 45.3014 48.4977 47.8311 50.4727 50.4869C50.3273 50.4869 50.0363 50.6253 49.8909 50.7636C48.424 48.1061 48.1716 45.3695 49.1636 42.8762C51.5 40.5239 55.6455 38.6644 59.9273 44.26Z" fill="#843511"/>
<path d="M54.4803 42.5295C52.5959 42.6862 52.1972 43.1572 51.3877 43.9543C50.5783 44.7514 50.1314 44.6426 49.9985 44.7996C49.8656 44.9566 50.0467 45.3794 50.3245 45.2104C50.6024 45.0413 51.1581 44.7032 51.9676 43.9061C52.777 43.109 53.6467 43.0367 54.5165 42.9644C57.1257 42.7474 58.756 44.8012 59.0338 44.6321C59.3117 44.4631 57.3794 42.2884 54.4803 42.5295Z" fill="#843511"/>
<path d="M57.9414 44.7569C56.3295 44.2297 52.8367 44.0474 51.0039 45.3875C52.5302 45.743 55.7714 45.5265 57.9414 44.7569Z" fill="#843511"/>
<path d="M58.2243 45.4294C55.9168 47.5187 53.4405 47.5786 51.9187 46.8294C50.3968 46.0802 50.3727 45.7903 50.6626 45.7662C50.9525 45.7421 51.2665 46.0079 52.4744 46.4913C53.6822 46.9747 55.4217 46.8301 58.2243 45.4294Z" fill="#843511"/>
<path d="M51.0546 50.6182C51.2032 50.671 51.3348 50.7632 51.4352 50.8849C51.5357 51.0066 51.6013 51.1532 51.625 51.3092C51.6487 51.4652 51.6297 51.6247 51.57 51.7708C51.5103 51.9168 51.4121 52.044 51.2858 52.1386C51.1596 52.2333 51.0101 52.292 50.8531 52.3084C50.6962 52.3249 50.5377 52.2985 50.3946 52.232C50.2515 52.1656 50.1291 52.0615 50.0404 51.931C49.9517 51.8005 49.9 51.6484 49.8909 51.4909C49.7455 51.7818 49.1637 52.6545 48 52.6545H47.7091L48 53.0909C48.2909 53.0909 49.1637 53.0909 49.7455 52.6545C49.8684 52.831 50.033 52.9744 50.2246 53.0721C50.4162 53.1698 50.6289 53.2188 50.8439 53.2148C51.0589 53.2108 51.2696 53.1539 51.4574 53.0491C51.6452 52.9442 51.8043 52.7948 51.9206 52.6139C52.0369 52.433 52.1068 52.2262 52.1242 52.0118C52.1416 51.7975 52.1059 51.5821 52.0203 51.3848C51.9347 51.1875 51.8018 51.0144 51.6334 50.8807C51.4649 50.747 51.2661 50.6568 51.0546 50.6182Z" fill="#843511"/>
<path d="M52.8 56.7272C51.4909 55.8545 50.9091 54.5454 49.4546 54.5454C49.1637 54.5454 48.5818 54.6909 48 54.9818H47.7091L48 55.4181C48.5818 55.4181 49.4546 54.6909 50.4727 55.2727C51.4909 55.8545 52.0727 56.4363 52.8 56.7272Z" fill="#843511"/>
<path d="M52.3637 56.7272C49.4546 55.8545 48.8727 56.4363 48 56.4363H47.7091L48 57.0181C49.1637 57.0181 49.7455 56.1454 52.3637 56.7272Z" fill="#843511"/>
<path d="M52.8 56.7272C49.6 56.4363 50.6182 58.3272 48 58.3272H47.7091L48 58.7636C51.2 58.7636 49.7455 57.0181 52.8 56.7272Z" fill="#843511"/>
<path d="M50.6182 61.3819C50.6182 60.6875 50.3424 60.0215 49.8514 59.5305C49.3603 59.0395 48.6944 58.7637 48 58.7637C47.3056 58.7637 46.6397 59.0395 46.1487 59.5305C45.6577 60.0215 45.3818 60.6875 45.3818 61.3819C45.5217 60.7926 45.8562 60.2677 46.3313 59.8922C46.8065 59.5166 47.3944 59.3123 48 59.3123C48.6056 59.3123 49.1936 59.5166 49.6687 59.8922C50.1438 60.2677 50.4783 60.7926 50.6182 61.3819Z" fill="#843511"/>
<path d="M36.0727 43.5552C39.4182 40.4878 43.6364 40.0277 45.9637 42.3283C47.6528 44.7095 47.5023 47.5133 45.5273 50.4569C45.6727 50.4569 45.9637 50.6103 46.1091 50.7637C47.576 47.8181 47.8284 44.7849 46.8364 42.0215C43.676 39.4859 39.1544 39.258 36.0727 43.5552Z" fill="#843511"/>
<path d="M41.309 43.0547C43.1999 43.0547 43.6363 43.4911 44.509 44.2183C45.3817 44.9456 45.8181 44.8001 45.9636 44.9456C46.109 45.0911 45.9636 45.5274 45.6727 45.382C45.3817 45.2365 44.7999 44.9456 43.9272 44.2183C43.0545 43.4911 42.1817 43.4911 41.309 43.4911C38.6908 43.4911 37.2363 45.6729 36.9454 45.5274C36.6545 45.382 38.3999 43.0547 41.309 43.0547Z" fill="#843511"/>
<path d="M37.9636 45.5273C39.8545 43.4909 43.3454 43.3454 44.7999 45.6727H44.2181C42.7636 43.3454 39.2727 44.3636 38.9817 45.3818V45.6727" fill="#843511"/>
<path d="M41.6 46.6909C40.877 46.6909 40.2909 46.1048 40.2909 45.3818C40.2909 44.6589 40.877 44.0728 41.6 44.0728C42.323 44.0728 42.9091 44.6589 42.9091 45.3818C42.9091 46.1048 42.323 46.6909 41.6 46.6909Z" fill="#843511"/>
<path d="M44.7999 45.6727C43.3454 46.9818 40.1454 47.1273 37.9636 45.5273L38.9817 45.3818C40.4363 46.9818 42.7636 46.8364 44.2181 45.6727V45.3818" fill="#843511"/>
<path d="M37.8182 46.2545C40.2909 48.1454 42.7636 48 44.2182 47.1273C45.6727 46.2545 45.6727 45.9636 45.3818 45.9636C45.0909 45.9636 44.8 46.2545 43.6363 46.8364C42.4727 47.4182 40.7273 47.4182 37.8182 46.2545Z" fill="#843511"/>
<path d="M44.9454 50.6182C44.7968 50.671 44.6652 50.7632 44.5648 50.8849C44.4643 51.0066 44.3987 51.1532 44.375 51.3092C44.3513 51.4652 44.3703 51.6247 44.43 51.7708C44.4897 51.9168 44.5879 52.044 44.7142 52.1386C44.8404 52.2333 44.9899 52.292 45.1469 52.3084C45.3038 52.3249 45.4623 52.2985 45.6054 52.232C45.7485 52.1656 45.8709 52.0615 45.9596 51.931C46.0483 51.8005 46.1 51.6484 46.1091 51.4909C46.2545 51.7818 46.8363 52.6545 48 52.6545H48.2909L48 53.0909C47.7091 53.0909 46.8363 53.0909 46.2545 52.6545C46.1316 52.831 45.967 52.9744 45.7754 53.0721C45.5838 53.1698 45.3711 53.2188 45.1561 53.2148C44.9411 53.2108 44.7304 53.1539 44.5426 53.0491C44.3548 52.9442 44.1957 52.7948 44.0794 52.6139C43.9631 52.433 43.8932 52.2262 43.8758 52.0118C43.8584 51.7975 43.8941 51.5821 43.9797 51.3848C44.0653 51.1875 44.1982 51.0144 44.3666 50.8807C44.5351 50.747 44.7339 50.6568 44.9454 50.6182Z" fill="#843511"/>
<path d="M43.2 56.7272C44.5091 55.8545 45.0909 54.5454 46.5454 54.5454C46.8363 54.5454 47.4182 54.6909 48 54.9818H48.2909L48 55.4181C47.4182 55.4181 46.5454 54.6909 45.5273 55.2727C44.5091 55.8545 43.9273 56.4363 43.2 56.7272Z" fill="#843511"/>
<path d="M43.6363 56.7272C46.5454 55.8545 47.1273 56.4363 48 56.4363H48.2909L48 57.0181C46.8363 57.0181 46.2545 56.1454 43.6363 56.7272Z" fill="#843511"/>
<path d="M43.2 56.7272C46.4 56.4363 45.3818 58.3272 48 58.3272H48.2909L48 58.7636C44.8 58.7636 46.2545 57.0181 43.2 56.7272Z" fill="#843511"/>
<path d="M45.3818 61.3819C45.3818 60.6875 45.6576 60.0215 46.1486 59.5305C46.6397 59.0395 47.3056 58.7637 48 58.7637C48.6944 58.7637 49.3603 59.0395 49.8513 59.5305C50.3423 60.0215 50.6182 60.6875 50.6182 61.3819C50.4783 60.7926 50.1438 60.2677 49.6687 59.8922C49.1935 59.5166 48.6056 59.3123 48 59.3123C47.3944 59.3123 46.8064 59.5166 46.3313 59.8922C45.8562 60.2677 45.5217 60.7926 45.3818 61.3819Z" fill="#843511"/>
</g>
<defs>
<clipPath id="clip0_44_1214">
<rect width="96" height="96" fill="white"/>
</clipPath>
</defs>
</svg>
